<svg width="20" height="20" viewBox="0 0 20 20" fill="none" xmlns="http://www.w3.org/2000/svg">
<path d="M18.603 5.34699C18.3845 4.42316 17.7406 3.69559 16.9232 3.44867C15.4415 3 9.5 3 9.5 3C9.5 3 3.55856 3 2.07682 3.44867C1.25936 3.69563 0.615539 4.42316 0.397023 5.34699C0 7.02148 0 10.5152 0 10.5152C0 10.5152 0 14.0088 0.397023 15.6833C0.615539 16.6071 1.25936 17.3044 2.07682 17.5513C3.55856 18 9.5 18 9.5 18C9.5 18 15.4414 18 16.9232 17.5513C17.7406 17.3044 18.3845 16.6071 18.603 15.6833C19 14.0088 19 10.5152 19 10.5152C19 10.5152 19 7.02148 18.603 5.34699ZM7.5568 13.6871V7.34316L12.5227 10.5152L7.5568 13.6871Z" fill="black"/>
</svg>
